<?xml version="1.0" encoding="utf-8"?>
<!-- Generator: Adobe Illustrator 24.3.0, SVG Export Plug-In . SVG Version: 6.00 Build 0)  -->
<svg version="1.1" id="Layer_1" xmlns="http://www.w3.org/2000/svg" xmlns:xlink="http://www.w3.org/1999/xlink" x="0px" y="0px"
	 viewBox="0 0 30 26" style="enable-background:new 0 0 30 26;" xml:space="preserve">
<style type="text/css">
	.st0{fill:#FFFFFF;}
</style>
<path class="st0" d="M28,7L28,7L28,7c0-2.1-4.4-3.9-10.2-4.4V2.5C17.7,1.1,16.5,0,14.9,0s-2.7,1.1-2.8,2.5v0.1C6.4,3.1,2,4.8,2,7
	l0,0l0,0l0,0l0,0c0,0.2,0.2,0.3,0.3,0.3h25.3C27.9,7.3,28,7.2,28,7L28,7L28,7z"/>
<path class="st0" d="M29.8,9.6c-0.2-0.2-0.4-0.3-0.6-0.3H15H0.9c-0.2,0-0.5,0.1-0.6,0.3c-0.8,0.9,0.5,3.2,2.3,4l0,0
	c0.3,3.4,0.8,7.2,2.3,9.7c0,0,0,0.1,0.1,0.1c0.9,1.9,3,2.8,5,2.6c1.6-0.2,3.3-0.5,4.9-0.5s3.3,0.3,4.9,0.5c2.1,0.2,4.1-0.7,5.2-2.5
	c0,0,0-0.1,0.1-0.1c1.4-2.6,2-6.4,2.3-9.7l0,0C29.2,12.9,30.6,10.5,29.8,9.6z"/>
</svg>
