<?xml version="1.0"?>
<svg xmlns="http://www.w3.org/2000/svg" height="512px" viewBox="-81 0 512 512" width="512px"><g><path d="m83.3125 391.902344v60.050781h30.054688c.664062 33.222656 27.878906 60.046875 61.257812 60.046875s60.589844-26.824219 61.253906-60.046875h30.054688v-60.050781zm0 0" data-original="#000000" class="active-path" data-old_color="#000000" fill="#FFFFFF"/><path d="m159.625 361.902344v-104.664063l-56.273438-56.273437 21.210938-21.214844 50.0625 50.0625 50.058594-50.0625 21.214844 21.214844-56.273438 56.273437v104.664063h76.308594v-38.402344c51.613281-31.6875 83.316406-87.929688 83.316406-148.875 0-46.460938-18.042969-90.191406-50.800781-123.132812-32.75-32.929688-76.347657-51.214844-122.773438-51.48828175-.351562-.00390625-.699219-.00390625-1.046875-.00390625-46.238281 0-89.863281 18.074219-122.949218 50.964844-33.328126 33.132812-51.679688 77.050781-51.679688 123.664062 0 60.945313 31.703125 117.183594 83.3125 148.871094v38.402344zm0 0" data-original="#000000" class="active-path" data-old_color="#000000" fill="#FFFFFF"/></g> </svg>
