<svg xmlns="http://www.w3.org/2000/svg" width="198.276" height="198.276" viewBox="0 0 198.276 198.276"><title>Color</title><path d="M99.138,0a99.138,99.138,0,0,0,0,198.276,16.531,16.531,0,0,0,12.227-27.648A16.461,16.461,0,0,1,123.7,143.2h19.5a55.1,55.1,0,0,0,55.076-55.077C198.276,39.435,153.884,0,99.138,0ZM38.554,99.138A16.523,16.523,0,1,1,55.077,82.615,16.5,16.5,0,0,1,38.554,99.138ZM71.6,55.077A16.523,16.523,0,1,1,88.123,38.554,16.5,16.5,0,0,1,71.6,55.077Zm55.077,0A16.523,16.523,0,1,1,143.2,38.554,16.5,16.5,0,0,1,126.677,55.077Zm33.046,44.061a16.523,16.523,0,1,1,16.523-16.523A16.5,16.5,0,0,1,159.723,99.138Z" fill="#7c7a7d"/></svg>