<svg xmlns="http://www.w3.org/2000/svg" width="20.008" height="20.001" viewBox="0 0 20.008 20.001"><title>Asset 1</title><path d="M14.19,15.191V18a2,2,0,0,1-2,2H2a1.993,1.993,0,0,1-2-2V7.811a2,2,0,0,1,2-2H4.81v6.38a3.009,3.009,0,0,0,3,3Z" fill="#7C7A7D"/><path d="M18.008,0H7.818a2,2,0,0,0-2,2V12.19a1.993,1.993,0,0,0,2,2h10.19a2,2,0,0,0,2-2V2A2.006,2.006,0,0,0,18.008,0Zm-1.4,7.73h-3.07V10.8a.625.625,0,0,1-1.25,0V7.73H9.218a.625.625,0,1,1,0-1.25h3.07V3.4a.625.625,0,0,1,1.25,0V6.48h3.07a.625.625,0,1,1,0,1.25Z" fill="#7C7A7D"/><path d="M18.008,0H7.818a2,2,0,0,0-2,2V12.19a1.993,1.993,0,0,0,2,2h10.19a2,2,0,0,0,2-2V2A2.006,2.006,0,0,0,18.008,0Zm-1.4,7.73h-3.07V10.8a.625.625,0,0,1-1.25,0V7.73H9.218a.625.625,0,1,1,0-1.25h3.07V3.4a.625.625,0,0,1,1.25,0V6.48h3.07a.625.625,0,1,1,0,1.25Z" fill="#7C7A7D"/></svg>