<?xml version="1.0"?>
<svg xmlns="http://www.w3.org/2000/svg" viewBox="0 0 512 512" width="512px" height="512px"><g><path d="m467 212h-90c-24.8125 0-45 20.1875-45 45v15h180v-15c0-24.8125-20.1875-45-45-45zm0 0" data-original="#000000" class="active-path" data-old_color="#000000" fill="#7C7A7D"/><path d="m332 302h180v120h-180zm0 0" data-original="#000000" class="active-path" data-old_color="#000000" fill="#7C7A7D"/><path d="m332 467c0 24.8125 20.1875 45 45 45h90c24.8125 0 45-20.1875 45-45v-15h-180zm0 0" data-original="#000000" class="active-path" data-old_color="#000000" fill="#7C7A7D"/><path d="m302 257c0-41.351562 33.648438-75 75-75h75v-137c0-24.8125-20.1875-45-45-45h-362c-24.8125 0-45 20.1875-45 45v227h302zm0 0" data-original="#000000" class="active-path" data-old_color="#000000" fill="#7C7A7D"/><path d="m45 362h257v-60h-302v15c0 24.8125 20.1875 45 45 45zm0 0" data-original="#000000" class="active-path" data-old_color="#000000" fill="#7C7A7D"/><path d="m181 392v30h-45c-8.289062 0-15 6.710938-15 15s6.710938 15 15 15h166v-30h-30v-30zm0 0" data-original="#000000" class="active-path" data-old_color="#000000" fill="#7C7A7D"/></g> </svg>
