<?xml version="1.0" encoding="utf-8"?>
<svg version="1.1" id="Layer_1" xmlns="http://www.w3.org/2000/svg" xmlns:xlink="http://www.w3.org/1999/xlink" x="0px" y="0px"
	 viewBox="0 0 258.9 300" style="enable-background:new 0 0 258.9 300;" xml:space="preserve">
<style type="text/css">
	.st0{fill:#FFFFFF;}
</style>
<path class="st0" d="M252.8,155.7c-8.2-8.2-21.5-8.2-29.7,0l-72.6,72.6V21c0-11.6-9.4-21-21-21h0c-11.6,0-21,9.4-21,21v207.3
	l-72.6-72.6c-8.2-8.2-21.5-8.2-29.7,0c-8.2,8.2-8.2,21.5,0,29.7l108.5,108.5c0.5,0.5,1,1,1.5,1.4c0.2,0.2,0.5,0.4,0.7,0.6
	c0.3,0.2,0.6,0.5,0.9,0.7c0.3,0.2,0.6,0.4,0.9,0.6c0.3,0.2,0.6,0.3,0.9,0.5c0.3,0.2,0.6,0.3,0.9,0.5c0.3,0.1,0.6,0.3,0.9,0.4
	c0.3,0.1,0.6,0.2,0.9,0.3c0.3,0.1,0.7,0.2,1,0.4c0.3,0.1,0.6,0.2,0.9,0.2c0.3,0.1,0.7,0.2,1,0.3c0.4,0.1,0.7,0.1,1.1,0.2
	c0.3,0,0.6,0.1,0.9,0.1c0.7,0.1,1.4,0.1,2.1,0.1c0,0,0,0,0,0h0c0.7,0,1.4,0,2.1-0.1c0.3,0,0.6-0.1,0.9-0.1c0.4-0.1,0.7-0.1,1.1-0.2
	c0.4-0.1,0.7-0.2,1-0.3c0.3-0.1,0.6-0.1,0.9-0.2c0.3-0.1,0.7-0.2,1-0.4c0.3-0.1,0.6-0.2,0.9-0.3c0.3-0.1,0.6-0.3,0.9-0.4
	c0.3-0.1,0.6-0.3,0.9-0.5c0.3-0.2,0.6-0.3,0.9-0.5c0.3-0.2,0.6-0.4,0.9-0.6c0.3-0.2,0.6-0.4,0.9-0.7c0.2-0.2,0.5-0.4,0.7-0.6
	c0.5-0.4,1-0.9,1.5-1.4l108.5-108.5C261,177.2,261,163.9,252.8,155.7z"/>
</svg>
