<?xml version="1.0" encoding="utf-8"?>
<!-- Generator: Adobe Illustrator 24.0.3, SVG Export Plug-In . SVG Version: 6.00 Build 0)  -->
<svg version="1.1" id="Layer_1" xmlns="http://www.w3.org/2000/svg" xmlns:xlink="http://www.w3.org/1999/xlink" x="0px" y="0px"
	 viewBox="0 0 300 300" xml:space="preserve">
<style type="text/css">
	.st0{fill:#FFF;}
</style>
<g>
	<path class="st0" d="M150,236L150,236c-8.8,0-16-7.2-16-16V16c0-8.8,7.2-16,16-16l0,0c8.8,0,16,7.2,16,16v204
		C166,228.8,158.8,236,150,236z"/>
</g>
<g>
	<path class="st0" d="M300,283L300,283c0,8.8-7.2,16-16,16H16c-8.8,0-16-7.2-16-16l0,0c0-8.8,7.2-16,16-16h268
		C292.8,267,300,274.2,300,283z"/>
</g>
<g>
	<path class="st0" d="M161.4,231.5L161.4,231.5c-6.2,6.2-16.4,6.2-22.6,0l-60.3-60.3c-6.2-6.2-6.2-16.4,0-22.6l0,0
		c6.2-6.2,16.4-6.2,22.6,0l60.3,60.3C167.6,215.1,167.6,225.2,161.4,231.5z"/>
</g>
<g>
	<path class="st0" d="M138.5,231.5L138.5,231.5c-6.2-6.2-6.2-16.4,0-22.6l60.3-60.3c6.2-6.2,16.4-6.2,22.6,0l0,0
		c6.2,6.2,6.2,16.4,0,22.6l-60.3,60.3C154.9,237.8,144.7,237.8,138.5,231.5z"/>
</g>
</svg>
