<?xml version="1.0" encoding="utf-8"?>
<!-- Generator: Adobe Illustrator 18.1.1, SVG Export Plug-In . SVG Version: 6.00 Build 0)  -->
<!DOCTYPE svg PUBLIC "-//W3C//DTD SVG 1.1//EN" "http://www.w3.org/Graphics/SVG/1.1/DTD/svg11.dtd">
<svg version="1.1" id="Layer_1" xmlns="http://www.w3.org/2000/svg" xmlns:xlink="http://www.w3.org/1999/xlink" x="0px" y="0px"
	 width="300px" height="300px" viewBox="0 0 300 300" enable-background="new 0 0 300 300" xml:space="preserve">
<g>
	<path fill="#FFFFFF" d="M292.1,69.2c9.6-9.6,9.4-25.3-0.4-34.6L263.5,8.1c-9.5-8.9-24.3-8.7-33.6,0.5L202,36.5l61.3,61.3
		L292.1,69.2z"/>
	<path fill="#FFFFFF" d="M14.8,227.5L0.9,292.1c-0.8,3.7,2.5,7,6.2,6.2l64.3-13.5c2.1-0.5,4-1.4,5.8-2.6l-60.1-60.1
		C16.1,223.8,15.3,225.6,14.8,227.5z"/>
	<polygon fill="#FFFFFF" points="32.8,205.7 93.6,266.5 247.2,113.8 186,52.6 	"/>
</g>
</svg>
