<svg id="Layer_1" data-name="Layer 1" xmlns="http://www.w3.org/2000/svg" viewBox="0 0 24 24"><defs><style>.cls-1{fill:#7d7b7d;}.cls-2{fill:#fff;}</style></defs><path class="cls-1" d="M24,2.29a9.65,9.65,0,0,1-2.84.79A4.88,4.88,0,0,0,23.34.36,10.27,10.27,0,0,1,20.2,1.54,5,5,0,0,0,16.6,0a4.9,4.9,0,0,0-4.92,4.89A4.58,4.58,0,0,0,11.8,6,14.15,14.15,0,0,1,1.66.88,4.87,4.87,0,0,0,1,3.32,5,5,0,0,0,3.17,7.4,5,5,0,0,1,.94,6.79v.06a4.85,4.85,0,0,0,4,4.77,4.64,4.64,0,0,1-1.3.18,4.66,4.66,0,0,1-.93-.09,5,5,0,0,0,4.62,3.41,9.93,9.93,0,0,1-6.1,2.09c-.4,0-.79,0-1.18-.06a14.21,14.21,0,0,0,7.55,2.17,14.93,14.93,0,0,0,3.75-.46,13.39,13.39,0,0,0,7.91-5.71,14.28,14.28,0,0,0,2.34-7.72,4.43,4.43,0,0,0,0-.63A9.55,9.55,0,0,0,24,2.29"/><path id="path4" class="cls-2" d="M23.77,20.71A10,10,0,0,1,23,22.16a8.25,8.25,0,0,1-1,1.26,2,2,0,0,1-1.33.58,3.12,3.12,0,0,1-1.23-.3,3.69,3.69,0,0,0-1.33-.31,3.41,3.41,0,0,0-1.35.31,3.91,3.91,0,0,1-1.17.3,1.9,1.9,0,0,1-1.35-.61,7.33,7.33,0,0,1-1.07-1.28A9,9,0,0,1,12,19.85a7.76,7.76,0,0,1-.51-2.72,4.86,4.86,0,0,1,.65-2.59,4,4,0,0,1,1.35-1.37,3.63,3.63,0,0,1,1.84-.52,4.58,4.58,0,0,1,1.42.33,5,5,0,0,0,1.12.33,7.61,7.61,0,0,0,1.26-.4,4.12,4.12,0,0,1,1.7-.3,3.57,3.57,0,0,1,2.82,1.49A3.16,3.16,0,0,0,22,16.94a3.11,3.11,0,0,0,1,2.38A3.22,3.22,0,0,0,24,20a4,4,0,0,1-.23.72ZM20.88,9.39a3.24,3.24,0,0,1-.82,2.1,2.75,2.75,0,0,1-2.3,1.14c0-.09,0-.19,0-.28a3.18,3.18,0,0,1,.87-2.1,3.33,3.33,0,0,1,1-.79,3,3,0,0,1,1.24-.37v.3Z"/><path id="path4-2" data-name="path4" class="cls-1" d="M23.78,20.85A10.29,10.29,0,0,1,23,22.24a7.47,7.47,0,0,1-1,1.2,1.92,1.92,0,0,1-1.27.56,3.05,3.05,0,0,1-1.19-.29,3.51,3.51,0,0,0-1.27-.29,3.26,3.26,0,0,0-1.29.29A3.53,3.53,0,0,1,15.9,24a1.8,1.8,0,0,1-1.29-.58,8,8,0,0,1-1-1.23A8.74,8.74,0,0,1,12.49,20,7.6,7.6,0,0,1,12,17.42a4.68,4.68,0,0,1,.62-2.48,3.88,3.88,0,0,1,1.3-1.31,3.41,3.41,0,0,1,1.76-.49,4.44,4.44,0,0,1,1.36.31,4.83,4.83,0,0,0,1.07.31,7.46,7.46,0,0,0,1.21-.38,4.08,4.08,0,0,1,1.62-.29,3.42,3.42,0,0,1,2.7,1.43,3.12,3.12,0,0,0-.62,5,3,3,0,0,0,1,.64,3.09,3.09,0,0,1-.22.69ZM21,10a3.12,3.12,0,0,1-.78,2A2.62,2.62,0,0,1,18,13.11c0-.09,0-.17,0-.26a3,3,0,0,1,.83-2,3.08,3.08,0,0,1,1-.76A3,3,0,0,1,21,9.72V10Z"/></svg>