<svg id="Layer_1" data-name="Layer 1" xmlns="http://www.w3.org/2000/svg" viewBox="0 0 2500 2500"><defs><style>.cls-1{fill:#7d7b7d;}</style></defs><title>1</title><path class="cls-1" d="M1989.93,158.28a471.25,471.25,0,0,0-106.56-12.13H616.63c-156.3,0-294.85,76.28-380.42,193.64a468.29,468.29,0,0,0-90.07,276.84V1883.36c0,259.78,210.72,470.49,470.49,470.49H1883.37c259.77,0,470.49-210.71,470.49-470.49V616.63C2353.86,393.5,2198.4,206.58,1989.93,158.28ZM1674.2,1864.57h-792a86,86,0,0,1-86.09-85.89v-.19a86,86,0,0,1,86.08-85.9h792a86,86,0,0,1,0,172Zm71.79-1005h0l-375.9,658c-40.61,71-143.21,71-183.81,0l-376.08-658C770,789.12,820.92,701.17,902.14,701.17h752C1735.45,701.17,1786.41,789.13,1746,859.61Z"/></svg>