<svg id="Layer_1" data-name="Layer 1" xmlns="http://www.w3.org/2000/svg" viewBox="0 0 2500 2500"><defs><style>.cls-1{fill:#7d7b7d;}</style></defs><title>3</title><path class="cls-1" d="M1883.37,146.07H616.63c-259.77,0-470.49,210.71-470.49,470.49V1883.29c0,259.78,210.72,470.49,470.49,470.49H1883.37c259.77,0,470.49-210.71,470.49-470.49V616.56C2353.86,356.78,2143.14,146.07,1883.37,146.07ZM1654.1,1864.58h-752c-81.32,0-132.28-88-91.87-158.45l375.9-658c40.61-71,143.22-71,183.81,0l376.09,658C1786.26,1776.62,1735.31,1864.58,1654.1,1864.58Zm106-1077.33a86,86,0,0,1-86.08,85.9h-792a86,86,0,0,1,0-172h792a86,86,0,0,1,86.09,85.89Z"/></svg>