<svg width="53" height="53" xmlns="http://www.w3.org/2000/svg">

 <g>
  <title>background</title>
  <rect fill="none" id="canvas_background" height="402" width="582" y="-1" x="-1"/>
 </g>
 <g>
  <title>Layer 1</title>
  <g id="svg_1">
   <path id="svg_2" fill="#7C7A7D" d="m42.943,6l-9.443,0l0,-3c0,-1.654 -1.346,-3 -3,-3l-8,0c-1.654,0 -3,1.346 -3,3l0,3l-9.443,0c-1.961,0 -3.557,1.596 -3.557,3.557l0,4.443l2,0l36,0l2,0l0,-4.443c0,-1.961 -1.596,-3.557 -3.557,-3.557zm-11.443,0l-10,0l0,-3c0,-0.552 0.449,-1 1,-1l8,0c0.551,0 1,0.448 1,1l0,3z"/>
   <path id="svg_3" fill="#7C7A7D" d="m8.5,49.271c0,2.056 1.673,3.729 3.729,3.729l28.541,0c2.057,0 3.729,-1.673 3.729,-3.729l0,-33.271l-36,0l0,33.271l0.001,0z"/>
  </g>
  <g id="svg_4"/>
  <g id="svg_5"/>
  <g id="svg_6"/>
  <g id="svg_7"/>
  <g id="svg_8"/>
  <g id="svg_9"/>
  <g id="svg_10"/>
  <g id="svg_11"/>
  <g id="svg_12"/>
  <g id="svg_13"/>
  <g id="svg_14"/>
  <g id="svg_15"/>
  <g id="svg_16"/>
  <g id="svg_17"/>
  <g id="svg_18"/>
 </g>
</svg>