<?xml version="1.0" encoding="utf-8"?>
<!-- Generator: Adobe Illustrator 24.1.0, SVG Export Plug-In . SVG Version: 6.00 Build 0)  -->
<svg version="1.1" id="Layer_1" xmlns="http://www.w3.org/2000/svg" xmlns:xlink="http://www.w3.org/1999/xlink" x="0px" y="0px"
	 viewBox="0 0 294 246" style="enable-background:new 0 0 294 246;" xml:space="preserve">
<style type="text/css">
	.st0{fill:#7C7A7D;}
</style>
<g>
	<path class="st0" d="M143,44.5v156.9c0,3.9-3.1,7-7,7H55c-3.9,0-7-3.1-7-7V44.5c0-3.9,3.1-7,7-7h81C139.8,37.5,143,40.7,143,44.5z"
		/>
</g>
<g>
	<path class="st0" d="M246.4,14.6v216.7c0,3.9-3.1,7-7,7h-81c-3.9,0-7-3.1-7-7V14.6c0-3.9,3.1-7,7-7h81
		C243.2,7.6,246.4,10.7,246.4,14.6z"/>
</g>
<rect x="141.7" y="-24" transform="matrix(-4.486272e-11 -1 1 -4.486272e-11 24.012 269.988)" class="st0" width="10.5" height="294"/>
</svg>
