<?xml version="1.0" encoding="utf-8"?>
<!-- Generator: Adobe Illustrator 24.1.0, SVG Export Plug-In . SVG Version: 6.00 Build 0)  -->
<svg version="1.1" id="Layer_1" xmlns="http://www.w3.org/2000/svg" xmlns:xlink="http://www.w3.org/1999/xlink" x="0px" y="0px"
	 viewBox="0 0 294 246" style="enable-background:new 0 0 294 246;" xml:space="preserve">
<style type="text/css">
	.st0{fill:#7C7A7D;}
</style>
<g>
	<path class="st0" d="M143,67.1V224c0,3.9-3.1,7-7,7H55c-3.9,0-7-3.1-7-7V67.1c0-3.9,3.1-7,7-7h81C139.8,60.1,143,63.2,143,67.1z"/>
</g>
<g>
	<path class="st0" d="M246.4,7v216.7c0,3.9-3.1,7-7,7h-81c-3.9,0-7-3.1-7-7V7c0-3.9,3.1-7,7-7l81,0C243.2,0,246.4,3.1,246.4,7z"/>
</g>
<rect x="141.7" y="93.7" transform="matrix(-4.486272e-11 -1 1 -4.486272e-11 -93.7052 387.7052)" class="st0" width="10.5" height="294"/>
</svg>
