<?xml version="1.0" encoding="utf-8"?>
<!-- Generator: Adobe Illustrator 24.1.0, SVG Export Plug-In . SVG Version: 6.00 Build 0)  -->
<svg version="1.1" id="Layer_1" xmlns="http://www.w3.org/2000/svg" xmlns:xlink="http://www.w3.org/1999/xlink" x="0px" y="0px"
	 viewBox="0 0 294 246" style="enable-background:new 0 0 294 246;" xml:space="preserve">
<style type="text/css">
	.st0{fill:#7C7A7D;}
</style>
<g>
	<path class="st0" d="M143,178.9V22c0-3.9-3.1-7-7-7H55c-3.9,0-7,3.1-7,7v156.9c0,3.9,3.1,7,7,7h81C139.8,185.9,143,182.8,143,178.9
		z"/>
</g>
<g>
	<path class="st0" d="M246.4,239V22.2c0-3.9-3.1-7-7-7h-81c-3.9,0-7,3.1-7,7V239c0,3.9,3.1,7,7,7h81
		C243.2,246,246.4,242.8,246.4,239z"/>
</g>
<rect x="141.7" y="-141.7" transform="matrix(-4.486296e-11 1 -1 -4.486296e-11 152.2709 -141.7291)" class="st0" width="10.5" height="294"/>
</svg>
