<?xml version="1.0" encoding="utf-8"?>
<!-- Generator: Adobe Illustrator 24.1.0, SVG Export Plug-In . SVG Version: 6.00 Build 0)  -->
<svg version="1.1" id="Layer_1" xmlns="http://www.w3.org/2000/svg" xmlns:xlink="http://www.w3.org/1999/xlink" x="0px" y="0px"
	 viewBox="0 0 246 294" style="enable-background:new 0 0 246 294;" xml:space="preserve">
<style type="text/css">
	.st0{fill:#7C7A7D;}
</style>
<g>
	<path class="st0" d="M178.9,106H22c-3.9,0-7-3.1-7-7V18c0-3.9,3.1-7,7-7h156.9c3.9,0,7,3.1,7,7v81C185.9,102.8,182.8,106,178.9,106
		z"/>
</g>
<g>
	<path class="st0" d="M239,209.4H22.2c-3.9,0-7-3.1-7-7v-81c0-3.9,3.1-7,7-7H239c3.9,0,7,3.1,7,7v81
		C246,206.2,242.8,209.4,239,209.4z"/>
</g>
<rect class="st0" width="10.5" height="294"/>
</svg>
