<?xml version="1.0" encoding="utf-8"?>
<!-- Generator: Adobe Illustrator 24.1.0, SVG Export Plug-In . SVG Version: 6.00 Build 0)  -->
<svg version="1.1" id="Layer_1" xmlns="http://www.w3.org/2000/svg" xmlns:xlink="http://www.w3.org/1999/xlink" x="0px" y="0px"
	 viewBox="0 0 230.7 294" style="enable-background:new 0 0 230.7 294;" xml:space="preserve">
<style type="text/css">
	.st0{fill:#7C7A7D;}
</style>
<g>
	<path class="st0" d="M36.9,106h156.9c3.9,0,7-3.1,7-7V18c0-3.9-3.1-7-7-7H36.9c-3.9,0-7,3.1-7,7v81C29.9,102.8,33,106,36.9,106z"/>
</g>
<g>
	<path class="st0" d="M7,209.4h216.7c3.9,0,7-3.1,7-7v-81c0-3.9-3.1-7-7-7H7c-3.9,0-7,3.1-7,7l0,81C0,206.2,3.1,209.4,7,209.4z"/>
</g>
<rect x="110.1" y="0" transform="matrix(-1 -4.486290e-11 4.486290e-11 -1 230.749 294)" class="st0" width="10.5" height="294"/>
</svg>
