<?xml version="1.0" encoding="utf-8"?>
<!-- Generator: Adobe Illustrator 24.1.0, SVG Export Plug-In . SVG Version: 6.00 Build 0)  -->
<svg version="1.1" id="Layer_1" xmlns="http://www.w3.org/2000/svg" xmlns:xlink="http://www.w3.org/1999/xlink" x="0px" y="0px"
	 viewBox="0 0 17.5 23" style="enable-background:new 0 0 17.5 23;" xml:space="preserve">
<style type="text/css">
	.st0{fill:#7C7A7D;}
</style>
<g>
	<path class="st0" d="M7.3,23H0.6C0.3,23,0,22.7,0,22.4V4.5c0-0.3,0.3-0.6,0.6-0.6h6.7c0.3,0,0.6,0.3,0.6,0.6v17.9
		C7.8,22.7,7.6,23,7.3,23z"/>
</g>
<g>
	<path class="st0" d="M10.2,6.4h6.7c0.3,0,0.6,0.3,0.6,0.6v13c0,0.3-0.3,0.6-0.6,0.6h-6.7c-0.3,0-0.6-0.3-0.6-0.6V7
		C9.7,6.7,9.9,6.4,10.2,6.4z"/>
</g>
<rect x="6.5" y="0" class="st0" width="1.3" height="3.5"/>
<rect x="9.7" y="0" class="st0" width="1.3" height="3.5"/>
<rect x="4.7" y="1.1" class="st0" width="8.1" height="1.3"/>
</svg>
