<?xml version="1.0" encoding="utf-8"?>
<!-- Generator: Adobe Illustrator 24.1.0, SVG Export Plug-In . SVG Version: 6.00 Build 0)  -->
<svg version="1.1" id="Layer_1" xmlns="http://www.w3.org/2000/svg" xmlns:xlink="http://www.w3.org/1999/xlink" x="0px" y="0px"
	 viewBox="0 0 23 17.5" style="enable-background:new 0 0 23 17.5;" xml:space="preserve">
<style type="text/css">
	.st0{fill:#7C7A7D;}
</style>
<g>
	<path class="st0" d="M23,10.2v6.7c0,0.3-0.3,0.6-0.6,0.6H4.5c-0.3,0-0.6-0.3-0.6-0.6v-6.7c0-0.3,0.3-0.6,0.6-0.6h17.9
		C22.7,9.7,23,9.9,23,10.2z"/>
</g>
<g>
	<path class="st0" d="M6.4,7.3V0.6C6.4,0.3,6.7,0,7,0h13c0.3,0,0.6,0.3,0.6,0.6v6.7c0,0.3-0.3,0.6-0.6,0.6H7
		C6.7,7.8,6.4,7.6,6.4,7.3z"/>
</g>
<rect x="0" y="9.5" class="st0" width="3.5" height="1.3"/>
<rect x="0" y="6.8" class="st0" width="3.5" height="1.3"/>
<rect x="1.1" y="4.7" class="st0" width="1.3" height="8.1"/>
</svg>
